/* XPM */
static char *abcmint32[] = {
/* columns rows colors chars-per-pixel */
"32 32 198 2 ",
"   c black",
".  c #0E6DB0",
"X  c #0D6CB0",
"o  c #0E6CB0",
"O  c #0F6EB0",
"+  c #0F6FAF",
"@  c #0F6FB0",
"#  c #0D6DB0",
"$  c #0F6DB0",
"%  c #126CAE",
"&  c #106CAE",
"*  c #0E6DB0",
"=  c #0E6DB0",
"-  c #0E6DB0",
";  c #0E6DB0",
":  c #0E6DB0",
">  c #0E6DB0",
",  c #0E6DB0",
"<  c #0E6DB0",
"1  c #0E6DB0",
"2  c #0E6DB0",
"3  c #0E6DB0",
"4  c #0E6DB0",
"5  c #0E6DB0",
"6  c #0E6DB0",
"7  c #0E6DB0",
"8  c #0E6DB0",
"9  c #0E6DB0",
"0  c None",
"q  c #0E6DB0",
"w  c #0E6DB0",
"e  c #0E6DB0",
"r  c #0E6DB0",
"t  c #0E6DB0",
"y  c #0E6DB0",
"u  c #0E6DB0",
"i  c #0E6DB0",
"p  c #0E6DB0",
"a  c #0E6DB0",
"s  c #0E6DB0",
"d  c #0E6DB0",
"f  c #0E6DB0",
"g  c #0E6DB0",
"h  c #0E6DB0",
"j  c #0E6DB0",
"k  c #0E6DB0",
"l  c #0E6DB0",
"z  c #0E6DB0",
"x  c #0E6DB0",
"c  c #0E6DB0",
"v  c #0E6DB0",
"b  c #0E6DB0",
"n  c #0E6DB0",
"m  c #0E6DB0",
"M  c #0E6DB0",
"N  c #0E6DB0",
"B  c #0E6DB0",
"V  c #0E6DB0",
"C  c #0E6DB0",
"Z  c #0E6DB0",
"A  c #0E6DB0",
"S  c #0E6DB0",
"D  c #0E6DB0",
"F  c #0E6DB0",
"G  c #0E6DB0",
"H  c #0E6DB0",
"J  c #1873B3",
"K  c #0D6CB0",
"L  c #0E6DB0",
"P  c #0E6DB0",
"I  c #0E6DB0",
"U  c #0E6DB0",
"Y  c #0E6DB0",
"T  c #0E6DB0",
"R  c #0E6DB0",
"E  c #0E6DB0",
"W  c #0E6DB0",
"Q  c #0E6DB0",
"!  c #0E6DB0",
"~  c #0B6BAF",
"^  c #0A6BAF",
"/  c #0D6DB0",
"(  c #0D6CB0",
")  c #1D76B5",
"_  c #76ACD2",
"`  c #85B5D7",
"'  c #7AAFD3",
"]  c #2379B7",
"[  c #2A7EB9",
"{  c #7EB1D5",
"}  c #84B5D7",
"|  c #75ABD2",
" . c #1C76B5",
".. c #0C6CAF",
"X. c #2D80BA",
"o. c #E7F0F7",
"O. c white",
"+. c #F0F6FA",
"@. c #3987BE",
"#. c #0769AE",
"$. c #4890C3",
"%. c #F8FBFD",
"&. c #E5EFF6",
"*. c #2B7FBA",
"=. c #0F6DB0",
"-. c #126FB1",
";. c #116FB1",
":. c #3182BB",
">. c #E4EFF6",
",. c #EDF4F9",
"<. c #3C89BF",
"1. c #4B92C4",
"2. c #F5F9FC",
"3. c #E2EEF6",
"4. c #2F81BB",
"5. c #1270B1",
"6. c #1370B1",
"7. c #0F6EB0",
"8. c #277CB8",
"9. c #A6C9E2",
"0. c #B7D4E7",
"q. c #C0D9EA",
"w. c #F7FAFC",
"e. c #FAFCFD",
"r. c #C3DBEB",
"t. c #B5D2E7",
"y. c #C8DEED",
"u. c #FCFDFE",
"i. c #F6FAFC",
"p. c #B6D3E7",
"a. c #B7D3E7",
"s. c #B9D4E8",
"d. c #8BB8D9",
"f. c #1772B3",
"g. c #3283BC",
"h. c #EBF3F9",
"j. c #E4EEF6",
"k. c #EBF3F8",
"l. c #E2EDF5",
"z. c #2178B6",
"x. c #81B3D6",
"c. c #8CBAD9",
"v. c #A7CAE2",
"b. c #8FBBDA",
"n. c #91BCDB",
"m. c #FDFEFE",
"M. c #0869AE",
"N. c #438DC1",
"B. c #F4F8FB",
"V. c #3B88BF",
"C. c #086AAE",
"Z. c #096AAE",
"A. c #EFF5FA",
"S. c #458EC2",
"D. c #3E8AC0",
"F. c #F9FBFD",
"G. c #B1D0E5",
"H. c #9DC3DF",
"J. c #9EC4DF",
"K. c #E0ECF5",
"L. c #297DB9",
"P. c #F6F9FC",
"I. c #9CC3DE",
"U. c #84B4D7",
"Y. c #A3C7E1",
"T. c #ABCCE3",
"R. c #87B6D8",
"E. c #88B7D8",
"W. c #64A1CC",
"Q. c #1470B2",
"!. c #3685BD",
"~. c #ACCDE4",
"^. c #ADCDE4",
"/. c #1571B2",
"(. c #0A6AAF",
"). c #3887BE",
"_. c #3585BD",
"`. c #DCEAF3",
"'. c #FBFDFE",
"]. c #74ABD1",
"[. c #66A2CD",
"{. c #E3EEF6",
"}. c #A0C6E0",
"|. c #1B75B4",
" X c #D3E4F1",
".X c #5B9CC9",
"XX c #F3F8FB",
"oX c #94BEDC",
"OX c #BBD6E9",
"+X c #468FC2",
"@X c #267CB8",
"#X c #CADFEE",
"$X c #87B7D8",
"%X c #7DB0D5",
"&X c #237AB7",
"*X c #408BC0",
"=X c #80B2D5",
"-X c #6CA6CF",
/* pixels */
"                    . . . . * = = * . . . .                     ",
"                . X . . - ; : > > : ; - . . o .                 ",
"            . O . . , < 1 2 ! ! ! ! 2 1 < , . . . .             ",
"        . . . . 3 4 5 6 ! ! ! ! ! ! ! ! 6 5 4 3 . . . .         ",
"    . . . . 7 8 9 0 ~ ^ ~ / ! ( ~ ^ ~ ! ! ! 0 9 8 7 . . . .     ",
"  + . . q w e ! ( ) _ ` ' ] ~ [ { } |  .( ! ! ! ! e w - . . @   ",
"  . . r t ! ! ! ..X.o.O.+.@.#.$.%.O.&.*...! ! ! ! ! ! t r . .   ",
"  . # y ! ! =.-.;.:.>.O.,.<...1.2.O.3.4.;.5.5.6.7.! ! ! y . .   ",
"  . u i ! ..8.9.0.q.w.O.e.r.t.y.u.O.i.q.p.a.a.s.d.f./ ! i u .   ",
". . p a ! ..g.h.O.O.O.O.O.O.O.O.O.O.O.O.O.O.O.O.j.[ ..! a p . . ",
". . s ! ! ..g.k.O.O.O.O.O.O.O.O.O.O.O.O.O.O.O.O.l.*...! ! s . . ",
". d f ! ! ( z.x.c.v.e.O.%.9.b.n.n.n.n.n.b.p.m.O.l.*...! ! f d . ",
". - g ! ! ! ! ~ M.N.B.O.+.V.C.~ ~ ~ ~ ~ Z.V.A.O.l.*...! ! g - . ",
". h j ! ! ! ! ! ~ S.B.O.+.<.^ ( ( ( ( ( ^ D.A.O.l.*...! ! j h . ",
". k l ! ! ! ! ! ~ S.B.O.F.G.H.J.J.J.J.J.H.q.m.O.l.*...! ! l k . ",
". z ! ! ! ! ! ! ~ S.B.O.O.O.O.O.O.O.O.O.O.O.O.O.3.*...! ! ! z . ",
"x c ! ! ! ! ! ! ~ S.B.O.O.O.O.O.O.O.O.O.O.O.O.O.K.L...! ! ! c x ",
"v b ! ! ! ! ! ! ~ S.B.O.P.I.U.Y.F.O.u.T.} R.R.E.W.Q.! ! ! ! b v ",
"n m ! ! ! ! ! ! ~ S.B.O.,.!.#.f.~.O.O.^./.(.~ ~ ~ ! ! ! ! ! m n ",
"M N ! ! ! ! ! ! ~ S.B.O.,.).~ ~ _.`.O.'.]...! ! ! ! ! ! ! ! N M ",
", B ! ! ! ! ! ! ~ S.B.O.,.).~ ! ~ [.w.O.{.D.~ ! ! ! ! ! ! ! B , ",
". V C ! ! ! ! ! ~ S.B.O.,.).~ ! / Q.}.O.O.p.|.( ! ! ! ! ! C V . ",
". * Z ! ! ! ! ! ~ S.B.O.,.).~ ! ! ..X. XO.m.' ( ! ! ! ! ! Z * . ",
". . u c ! ! ! ! ~ S.B.O.,.).~ ! ! ! ~ .XXXO.o.N.~ ! ! ! c u . . ",
"$ . . A S ! ! ! ~ S.B.O.,.).~ ! ! ! ! ;.oXO.O.OX) ( ! S A . . $ ",
"  . . . D F ! ! ~ +Xw.O.+.@.~ ! ! ! ! ..@X#XO.O.U.7.F D . . .   ",
"    . . % G H ! ..[ x.$X%X&X( ! ! ! ! ! ..*X=Xx.-XJ K & . .     ",
"      . . L P ! ! / ~ ~ ~ / ! ! ! ! ! ! ! ..^ ^ ~ P L . .       ",
"        . . I c ! ! ! ! ! ! ! ! ! ! ! ! ! ! ! ! c I . .         ",
"        $ . . U 1 ! ! ! ! ! ! ! ! ! ! ! ! ! ! Y U . . .         ",
"          . . . = T R E g g g g g g g g E R T = . . .           ",
"            . . . . W - Q Q Q Q Q Q Q Q - W . . . .             "
};
