/* XPM */
static char *abcmint64[] = {
/* columns rows colors chars-per-pixel */
"64 64 166 2 ",
"   c None",
".  c #0668AD",
"X  c #0668AE",
"o  c #0769AE",
"O  c #0869AE",
"+  c #086AAE",
"@  c #096AAE",
"#  c #0A6AAF",
"$  c #0A6BAF",
"%  c #0B6BAF",
"&  c #0C6CAF",
"*  c #0D6CB0",
"=  c #0D6DB0",
"-  c #0E6DB0",
";  c #0F6EB0",
":  c #106EB1",
">  c #116FB1",
",  c #126FB1",
"<  c #1370B2",
"1  c #1471B2",
"2  c #1571B2",
"3  c #1672B3",
"4  c #1772B3",
"5  c #1873B3",
"6  c #1973B3",
"7  c #1A74B4",
"8  c #1A75B4",
"9  c #1D76B5",
"0  c #1F77B5",
"q  c #2078B6",
"w  c #2279B7",
"e  c #237AB7",
"r  c #247AB7",
"t  c #257BB7",
"y  c #267BB8",
"u  c #267CB8",
"i  c #277CB8",
"p  c #287DB8",
"a  c #287DB9",
"s  c #297DB9",
"d  c #2A7EB9",
"f  c #2B7EB9",
"g  c #2B7FB9",
"h  c #2B7FBA",
"j  c #2C7FBA",
"k  c #2D80BA",
"l  c #2F81BB",
"z  c #3081BB",
"x  c #3082BB",
"c  c #3182BB",
"v  c #3383BC",
"b  c #3484BC",
"n  c #3584BD",
"m  c #3585BD",
"M  c #3886BE",
"N  c #3887BE",
"B  c #3987BE",
"V  c #3B88BF",
"C  c #408BC0",
"Z  c #418CC1",
"A  c #438DC1",
"S  c #458EC2",
"D  c #468FC2",
"F  c #4790C3",
"G  c #4890C3",
"H  c #4B92C4",
"J  c #4C93C4",
"K  c #4D93C5",
"L  c #4F94C5",
"P  c #5195C6",
"I  c #5196C6",
"U  c #5296C6",
"Y  c #5397C7",
"T  c #5799C8",
"R  c #589AC8",
"E  c #599AC9",
"W  c #5B9CC9",
"Q  c #5E9DCA",
"!  c #5F9ECB",
"~  c #609ECB",
"^  c #63A0CC",
"/  c #64A1CC",
"(  c #66A2CD",
")  c #66A3CD",
"_  c #6AA5CE",
"`  c #6CA6CF",
"'  c #6DA6CF",
"]  c #6FA8D0",
"[  c #71A9D1",
"{  c #76ACD2",
"}  c #77ADD2",
"|  c #79AED3",
" . c #7EB1D5",
".. c #7FB1D5",
"X. c #80B2D5",
"o. c #81B2D6",
"O. c #85B5D7",
"+. c #86B6D7",
"@. c #8DBAD9",
"#. c #8FBBDA",
"$. c #91BCDB",
"%. c #91BDDB",
"&. c #93BDDC",
"*. c #93BEDC",
"=. c #99C1DE",
"-. c #9DC4DF",
";. c #9EC4DF",
":. c #A5C8E1",
">. c #A9CBE3",
",. c #AECEE5",
"<. c #B0CFE5",
"1. c #B1D0E6",
"2. c #B2D0E6",
"3. c #B4D2E6",
"4. c #BBD6E9",
"5. c #BDD7E9",
"6. c #BFD8EA",
"7. c #C0D9EA",
"8. c #C5DCEC",
"9. c #C7DDED",
"0. c #C8DEED",
"q. c #CADFEE",
"w. c #CFE2EF",
"e. c #D1E3F0",
"r. c #D5E6F1",
"t. c #D9E8F2",
"y. c #D9E8F3",
"u. c #DCEAF3",
"i. c #DCEAF4",
"p. c #DEEBF4",
"a. c #DFECF4",
"s. c #DFECF5",
"d. c #E1EDF5",
"f. c #E2EDF5",
"g. c #E2EDF6",
"h. c #E2EEF6",
"j. c #E4EFF6",
"k. c #E5EFF6",
"l. c #E5EFF7",
"z. c #E6F0F7",
"x. c #E7F0F7",
"c. c #E8F1F7",
"v. c #E9F2F8",
"b. c #EAF2F8",
"n. c #EBF3F8",
"m. c #ECF4F9",
"M. c #EDF4F9",
"N. c #EEF5F9",
"B. c #EFF5FA",
"V. c #F0F6FA",
"C. c #F1F7FB",
"Z. c #F2F7FB",
"A. c #F5F9FC",
"S. c #F6FAFC",
"D. c #F7FAFC",
"F. c #F7FAFD",
"G. c #F8FBFD",
"H. c #F9FBFD",
"J. c #FAFCFD",
"K. c #FBFCFE",
"L. c #FBFDFE",
"P. c #FCFDFE",
"I. c #FDFEFE",
"U. c #FEFEFF",
"Y. c #FEFFFF",
"T. c white",
/* pixels */
"                                                                                                                                ",
"                                                                                                                                ",
"                                                          - - - - - -                                                           ",
"                                                      - - - - - - - - - -                                                       ",
"                                                  - - - - - - - - - - - - - -                                                   ",
"                                              - - - - - - - - - - - - - - - - - -                                               ",
"                                        - - - - - - - - - - - - - - - - - - - - - - - -                                         ",
"                                    - - - - - - - - - - - - - - - - - - - - - - - - - - - -                                     ",
"                                - - - - - - - - - - - - - - - - - - - - - - - - - - - - - - - -                                 ",
"                            - - - - - - - % % % % % - - - - - - % % % % % - - - - - - - - - - - - -                             ",
"                        - - - - - - - > t i i i i i 1 - - - - 5 i i i i i t > - - - - - - - - - - - - -                         ",
"                    - - - - - - - - % f 0.p.p.p.p.r.C % - - % ! p.p.p.p.p.7.i % - - - - - - - - - - - - - -                     ",
"                  - - - - - - - - - % z c.T.T.T.T.A.G % - - % ' T.T.T.T.T.l.f % - - - - - - - - - - - - - - -                   ",
"                - - - - - - - - - - % l z.T.T.T.T.A.G % - - % ' T.T.T.T.T.l.f % - - - - - - - - - - - - - - - -                 ",
"              - - - - - - - - - - - % l z.T.T.T.T.A.G % - - % ' T.T.T.T.T.l.f % - - - - - - - - - - - - - - - - -               ",
"              - - - - - - - % % % % % f l.T.T.T.T.A.C . % % . ' T.T.T.T.T.l.f % % % % % % % % % % % - - - - - - -               ",
"            - - - - - - - t | X.X.X...%.C.T.T.T.T.T.;...X.X...1.T.T.T.T.T.C.@...X.X.X.X.X.X.X.X.[ l - - - - - - - -             ",
"            - - - - - - % N C.T.T.T.T.T.T.T.T.T.T.T.T.T.T.T.T.T.T.T.T.T.T.T.T.T.T.T.T.T.T.T.T.T.T.1.1 - - - - - - -             ",
"            - - - - - - % N v.T.T.T.T.T.T.T.T.T.T.T.T.T.T.T.T.T.T.T.T.T.T.T.T.T.T.T.T.T.T.T.T.T.T.l.f % - - - - - -             ",
"          - - - - - - - % N v.T.T.T.T.T.T.T.T.T.T.T.T.T.T.T.T.T.T.T.T.T.T.T.T.T.T.T.T.T.T.T.T.T.T.l.f % - - - - - - -           ",
"          - - - - - - - % N v.T.T.T.T.T.T.T.T.T.T.T.T.T.T.T.T.T.T.T.T.T.T.T.T.T.T.T.T.T.T.T.T.T.T.l.f % - - - - - - -           ",
"          - - - - - - - % N v.T.T.T.T.T.T.T.T.T.T.T.T.T.T.T.T.T.T.T.T.T.T.T.T.T.T.T.T.T.T.T.T.T.T.l.f % - - - - - - -           ",
"          - - - - - - - % z p.v.v.v.v.C.T.T.T.T.T.T.C.v.v.v.v.v.v.v.v.v.v.v.v.v.v.v.C.T.T.T.T.T.T.l.f % - - - - - - -           ",
"          - - - - - - - - 1 z z z z z ..T.T.T.T.T.T.[ z N N N N N N N N N N N N N N C <.T.T.T.T.T.l.f % - - - - - - -           ",
"        - - - - - - - - - - % % % % . ( T.T.T.T.T.T.Y . % % % % % % % % % % % % % % . G T.T.T.T.T.l.f % - - - - - - - -         ",
"        - - - - - - - - - - - - - - % ( T.T.T.T.T.T.Y % - - - - - - - - - - - - - - % F A.T.T.T.T.l.f % - - - - - - - -         ",
"        - - - - - - - - - - - - - - % ( T.T.T.T.T.T.Y % - - - - - - - - - - - - - - % F A.T.T.T.T.l.f % - - - - - - - -         ",
"        - - - - - - - - - - - - - - % ( T.T.T.T.T.T.Y . % % % % % % % % % % % % % % . Y T.T.T.T.T.l.f % - - - - - - - -         ",
"      - - - - - - - - - - - - - - - % ( T.T.T.T.T.T.X.G G G G G G G G G G G G G G G ! 6.T.T.T.T.T.l.f % - - - - - - - - -       ",
"      - - - - - - - - - - - - - - - % ( T.T.T.T.T.T.T.T.A.A.A.A.T.T.A.A.A.A.A.A.A.A.T.T.T.T.T.T.T.l.f % - - - - - - - - -       ",
"      - - - - - - - - - - - - - - - % ( T.T.T.T.T.T.T.T.T.T.T.T.T.T.T.T.T.T.T.T.T.T.T.T.T.T.T.T.T.l.f % - - - - - - - - -       ",
"      - - - - - - - - - - - - - - - % ( T.T.T.T.T.T.T.T.T.T.T.T.T.T.T.T.T.T.T.T.T.T.T.T.T.T.T.T.T.l.f % - - - - - - - - -       ",
"      - - - - - - - - - - - - - - - % ( T.T.T.T.T.T.T.T.T.T.T.T.T.T.T.T.T.T.T.T.T.T.T.T.T.T.T.T.T.l.f % - - - - - - - - -       ",
"    - - - - - - - - - - - - - - - - % ( T.T.T.T.T.T.T.T.T.T.T.T.T.T.T.T.T.T.T.T.T.T.T.T.T.T.T.T.T.p.i % - - - - - - - - - -     ",
"    - - - - - - - - - - - - - - - - % ( T.T.T.T.T.T.v.l.l.l.l.A.T.T.T.T.T.T.c.l.l.l.l.l.l.l.l.l.p...> - - - - - - - - - - -     ",
"    - - - - - - - - - - - - - - - - % ( T.T.T.T.T.A.! f f f f X.T.T.T.T.T.T.%.f f f f f f f f f i > - - - - - - - - - - - -     ",
"    - - - - - - - - - - - - - - - - % ( T.T.T.T.T.A.C % % % % 5 1.T.T.T.T.T.l.C % % % % % % % % % - - - - - - - - - - - - -     ",
"    - - - - - - - - - - - - - - - - % ( T.T.T.T.T.A.G % - - - % V l.T.T.T.T.T.4.5 - - - - - - - - - - - - - - - - - - - - -     ",
"    - - - - - - - - - - - - - - - - % ( T.T.T.T.T.A.G % - - - - % ] T.T.T.T.T.T.X.- - - - - - - - - - - - - - - - - - - - -     ",
"    - - - - - - - - - - - - - - - - % ( T.T.T.T.T.A.G % - - - - - 1 >.T.T.T.T.T.v.F % - - - - - - - - - - - - - - - - - - -     ",
"    - - - - - - - - - - - - - - - - % ( T.T.T.T.T.A.G % - - - - - % z p.T.T.T.T.T.7.t - - - - - - - - - - - - - - - - - - -     ",
"    - - - - - - - - - - - - - - - - % ( T.T.T.T.T.A.G % - - - - - - % ( A.T.T.T.T.T.X.- - - - - - - - - - - - - - - - - - -     ",
"      - - - - - - - - - - - - - - - % ( T.T.T.T.T.A.G % - - - - - - - 1 ;.T.T.T.T.T.v.G % - - - - - - - - - - - - - - - -       ",
"        - - - - - - - - - - - - - - % ( T.T.T.T.T.A.G % - - - - - - - % f r.T.T.T.T.T.7.t % - - - - - - - - - - - - - -         ",
"        - - - - - - - - - - - - - - % ( T.T.T.T.T.A.G % - - - - - - - - % ! C.T.T.T.T.T.@.- - - - - - - - - - - - - - -         ",
"          - - - - - - - - - - - - - % ( T.T.T.T.T.A.G % - - - - - - - - - > %.T.T.T.T.T.C.Y % - - - - - - - - - - - -           ",
"            - - - - - - - - - - - - % ( T.T.T.T.T.A.G % - - - - - - - - - % t 7.T.T.T.T.T.0.i % - - - - - - - - - -             ",
"              - - - - - - - - - - - % ( T.T.T.T.T.A.G % - - - - - - - - - - % G v.T.T.T.T.T.%.> - - - - - - - - -               ",
"                - - - - - - - - - - % ( T.T.T.T.T.A.G % - - - - - - - - - - - - X.T.T.T.T.T.C.T % - - - - - - -                 ",
"                - - - - - - - - - - % ( T.T.T.T.T.A.G % - - - - - - - - - - - - 5 4.T.T.T.T.T.w.f % - - - - - -                 ",
"                  - - - - - - - - - % ( T.T.T.T.T.A.G % - - - - - - - - - - - - % C z.T.T.T.T.T.;.> - - - - -                   ",
"                    - - - - - - - - % ( T.T.T.T.T.A.G % - - - - - - - - - - - - - - | T.T.T.T.T.A.~ % - - -                     ",
"                      - - - - - - - % ! l.l.l.l.l.p.C % - - - - - - - - - - - - - - 5 :.p.p.p.p.p.>.t - -                       ",
"                        - - - - - - - 5 f f f f f f 1 - - - - - - - - - - - - - - - - 5 t t t t t t 1 -                         ",
"                        - - - - - - - - % % % % % % - - - - - - - - - - - - - - - - - - - - - - - - - -                         ",
"                          - - - - - - - - - - - - - - - - - - - - - - - - - - - - - - - - - - - - - -                           ",
"                            - - - - - - - - - - - - - - - - - - - - - - - - - - - - - - - - - - - -                             ",
"                              - - - - - - - - - - - - - - - - - - - - - - - - - - - - - - - - - -                               ",
"                                - - - - - - - - - - - - - - - - - - - - - - - - - - - - - - - -                                 ",
"                                  - - - - - - - - - - - - - - - - - - - - - - - - - - - - - -                                   ",
"                                    - - - - - - - - - - - - - - - - - - - - - - - - - - - -                                     ",
"                                          - - - - - - - - - - - - - - - - - - - - - -                                           ",
"                                                                                                                                ",
"                                                                                                                                "
};
