/* XPM */
static char *abcmint16[] = {
/* columns rows colors chars-per-pixel */
"16 16 131 2 ",
"   c black",
".  c #0E6DB0",
"X  c #0C6AB0",
"o  c #0E6CB1",
"O  c #096AAE",
"+  c #0E6DB0",
"@  c #0E6DB0",
"#  c #1571B2",
"$  c #0B6BAF",
"%  c #0869AE",
"&  c #0C6CAF",
"*  c None",
"=  c #0A6BAF",
"-  c #0E6DB0",
";  c #0E6DB0",
":  c #0E6DB0",
">  c #0C6CAF",
",  c #1672B3",
"<  c #0D6CB0",
"1  c #0D6DB0",
"2  c #0E6DB0",
"3  c #0E6DB0",
"4  c #0E6DB0",
"5  c #0E6DB0",
"6  c #0E6DB0",
"7  c #0E6DB0",
"8  c #0E6DB0",
"9  c #0E6DB0",
"0  c #0E6DB0",
"q  c #0E6DB0",
"w  c #0E6DB0",
"e  c #0E6DB0",
"r  c #0E6DB0",
"t  c #0E6DB0",
"y  c #0E6DB0",
"u  c #0E6DB0",
"i  c #0E6DB0",
"p  c #0B6BAF",
"a  c #0D6CB0",
"s  c #3082BB",
"d  c #0869AE",
"f  c #0E6DB0",
"g  c #0D6DB0",
"h  c #0A6AAF",
"j  c #096AAE",
"k  c #0E6DB0",
"l  c #0E6DB0",
"z  c #0E6DB0",
"x  c #4A91C4",
"c  c #3283BC",
"v  c #1873B3",
"b  c #4D93C5",
"n  c #2F81BB",
"m  c #0C6CAF",
"M  c #1470B2",
"N  c #3886BE",
"B  c #E3EEF6",
"V  c #93BEDC",
"C  c #418CC1",
"Z  c #ECF3F9",
"A  c #8CB9D9",
"S  c #1974B4",
"D  c #1C76B5",
"F  c #1370B2",
"G  c #74ABD1",
"H  c #DBE9F3",
"J  c #FBFCFE",
"K  c #EAF3F8",
"L  c #DAE9F3",
"P  c white",
"I  c #EBF3F8",
"U  c #D1E3F0",
"Y  c #67A3CD",
"T  c #0B6BAF",
"R  c #6AA5CE",
"E  c #CDE1EF",
"W  c #FBFDFE",
"Q  c #E4EEF6",
"!  c #C0D9EA",
"~  c #BED8EA",
"^  c #CEE1EF",
"/  c #88B7D8",
"(  c #0E6DB0",
")  c #0F6DB0",
"_  c #3D89BF",
"`  c #F0F6FA",
"'  c #9CC3DF",
"]  c #1C75B5",
"[  c #1E77B5",
"{  c #1C75B4",
"}  c #438DC1",
"|  c #EFF5FA",
" . c #3786BD",
".. c #EDF4F9",
"X. c #E8F1F7",
"o. c #C6DDEC",
"O. c #C4DBEC",
"+. c #D3E4F1",
"@. c #89B7D8",
"#. c #E1EDF5",
"$. c #C7DDED",
"%. c #FDFEFE",
"&. c #BCD7E9",
"*. c #BCD6E9",
"=. c #5E9DCA",
"-. c #94BEDC",
";. c #1973B3",
":. c #AACBE3",
">. c #E2EEF6",
",. c #116FB1",
"<. c #0F6EB0",
"1. c #92BDDB",
"2. c #096AAE",
"3. c #B0CFE5",
"4. c #1773B3",
"5. c #0D6CB0",
"6. c #3786BE",
"7. c #63A0CC",
"8. c #F2F7FB",
"9. c #72AAD1",
"0. c #3685BD",
"q. c #8FBBDA",
"w. c #0D6DB0",
"e. c #9DC3DF",
"r. c #DDEAF4",
"t. c #3887BE",
"y. c #1A74B4",
"u. c #4F94C5",
"i. c #3484BC",
"p. c #2178B6",
"a. c #0A6BAF",
/* pixels */
"  . . . . X + @ @ + o . . . .   ",
". . . # $ % & * = & - + ; . . . ",
". . : > , x c v b n m < 1 : . . ",
". 2 3 M N B V C Z A S D F 3 2 . ",
". 4 m G H J K L P I U U Y T 4 . ",
"5 6 m R E W Q ! ~ ~ ^ P / T 6 5 ",
"7 8 ( ) _ ` ' ] [ { } | / T 8 7 ",
"9 0 ( T  ...X.o.O.O.+.P @.T 0 9 ",
"q ( ( T  ...#.$.%.I &.*.=.T ( q ",
"w ( ( T  .` -.;.:.>._ ,.<.( ( w ",
"e r ( T  .` 1.2.c H 3.4.5.( r e ",
"t y ( T 6.` 1.T T 7.8.9.m ( y t ",
". u i T 0.I q.T w.F e.r.t.p u . ",
". . : a y.u.i.w.( 5.p.u.s d . . ",
". . . f g a.m ( ( ( 5.h j O . . ",
"  . . . k l z z z z l k . . .   "
};
